<svg xmlns="http://www.w3.org/2000/svg" viewBox="0 0 410 404"><defs><linearGradient id="a" x1="14" x2="14" y1="19" y2="18" gradientTransform="matrix(293 0 0 335 -4041 -5338)" gradientUnits="userSpaceOnUse"><stop stop-color="#41d1ff"/><stop offset="1" stop-color="#bd34fe"/></linearGradient><linearGradient id="b" x1="13" x2="13" y1="19" y2="18" gradientTransform="matrix(299 0 0 324 -4049 -5245)" gradientUnits="userSpaceOnUse"><stop stop-color="#ffea83"/><stop offset=".083" stop-color="#ffdd35"/><stop offset=".42" stop-color="#ffa800"/><stop offset="1" stop-color="#ff6a00"/></linearGradient></defs><path fill="url(#a)" d="M255 37L100 361a24 24 0 0 0 32 32l138-80Z"/><path fill="url(#b)" d="m382 35-94 324a24 24 0 0 1-34 15l-79-47Z"/><path fill="#1a1a1a" d="M212 119a96 96 0 0 0-40 6c-3 1-5 4-5 7l8 125c0 4 4 7 8 7h20c4 0 7-3 8-7l3-41h1l3 41c0 4 4 7 8 7h19c5 0 8-3 9-7l8-125c0-3-2-6-5-7a96 96 0 0 0-41-6Zm-15 52c0-3 2-6 5-7a55 55 0 0 1 20 0c3 1 6 4 5 7l-3 52h-1l-3-29c0-4-4-7-8-7h-6c-4 0-7 3-8 7l-3 29h-1Zm129-47a12 12 0 0 1 11 15l-60 206a12 12 0 0 1-17 8l-45-26a12 12 0 0 1-6-10l1-14a12 12 0 0 1 18-10l27 17 46-164h-53l3-28a12 12 0 0 1 12-10Z"/></svg>
